# xmcd
#
# Track frame offsets: 
#        150
#        23725
#        43857
#        64771
#        83006
#        101316
#        125056
#
# Disc length: 1918 seconds
#
# Revision: 0
# Processed by: cddbd v1.5.2PL0 Copyright (c) Steve Scherf et al.
# Submitted via: ExactAudioCopyFreeDBPlugin 1.0
#
DISCID=53077c07
DTITLE=四条貴音（CV：原由実） - THE IDOLM@STER MASTER ARTIST 3 06四条貴音
DYEAR=2015
DGENRE=Game
TTITLE0=ふたつの月（M@STER VERSION）
TTITLE1=KisS
TTITLE2=Destiny -太陽の花-
TTITLE3=せぷてんばぁ
TTITLE4=99 Nights（M@STER VERSION）
TTITLE5=ふたつの月（M@STER VERSION）オリジナル・カラオケ
TTITLE6=ONLY MY NOTE（M@STER VERSION）
EXTD=
EXTT0=
EXTT1=
EXTT2=
EXTT3=
EXTT4=
EXTT5=
EXTT6=
PLAYORDER=
